<mxfile host="app.diagrams.net" modified="2023-08-03T17:59:59.831Z" agent="Mozilla/5.0 (X11; Linux x86_64) AppleWebKit/537.36 (KHTML, like Gecko) Chrome/114.0.0.0 Safari/537.36" version="21.6.6" etag="i4wQgD1jKIZ-qyzgNeZ_" type="github">
  <diagram name="Page-1" id="Jbi7j0t8x7Vw2COSsVxz">
    <mxGraphModel>
      <root>
        <mxCell id="0" />
        <mxCell id="1" parent="0" />
      </root>
    </mxGraphModel>
  </diagram>
</mxfile>
